<?xml version="1.0" encoding="UTF-8" standalone="no"?><!DOCTYPE svg PUBLIC "-//W3C//DTD SVG 1.1//EN" "http://www.w3.org/Graphics/SVG/1.1/DTD/svg11.dtd"><svg width="100%" height="100%" viewBox="0 0 5315 5315" version="1.1" xmlns="http://www.w3.org/2000/svg" xmlns:xlink="http://www.w3.org/1999/xlink" xml:space="preserve" xmlns:serif="http://www.serif.com/" style="fill-rule:evenodd;clip-rule:evenodd;stroke-linejoin:round;stroke-miterlimit:2;"><rect id="fb-logo" x="0" y="0" width="5314.96" height="5314.96" style="fill:none;"/><clipPath id="_clip1"><rect id="icons8-facebook.svg" x="0" y="0" width="5314.96" height="5314.96"/></clipPath><g clip-path="url(#_clip1)"><path d="M2657.48,0c-1457.85,0 -2657.48,1199.63 -2657.48,2657.48c0,1457.85 1199.63,2657.48 2657.48,2657.48c1457.85,-0 2657.48,-1199.63 2657.48,-2657.48c-0,-1457.85 -1199.63,-2657.48 -2657.48,-2657.48Z" style="fill:#fff;fill-rule:nonzero;"/><path d="M3017.22,3361.85l687.728,0l107.978,-698.637l-795.846,-0l0,-381.838c0,-290.225 94.83,-547.581 366.313,-547.581l436.246,0l0,-609.682c-76.647,-10.35 -238.753,-33.009 -545.063,-33.009c-639.613,0 -1014.6,337.78 -1014.6,1107.33l0,464.779l-657.516,-0l-0,698.637l657.516,0l0,1920.24c130.217,19.581 262.112,32.869 397.503,32.869c122.384,-0 241.831,-11.19 359.739,-27.135l0,-1925.97Z" style="fill:#3e34cd;fill-rule:nonzero;"/></g></svg>