<svg xmlns="http://www.w3.org/2000/svg" xmlns:xlink="http://www.w3.org/1999/xlink" width="38.424" height="38.424" viewBox="0 0 38.424 38.424"><defs><clipPath id="a"><rect width="38.424" height="38.424"/></clipPath></defs><rect width="38.424" height="38.424" fill="none"/><g clip-path="url(#a)"><path d="M166.618-3733.574a19.087,19.087,0,0,1-13.5-5.687,19.072,19.072,0,0,1-5.623-13.527,19.068,19.068,0,0,1,5.654-13.559A19.069,19.069,0,0,1,166.712-3772a19.069,19.069,0,0,1,13.559,5.654,19.068,19.068,0,0,1,5.654,13.559,19.071,19.071,0,0,1-5.624,13.529,19.112,19.112,0,0,1-13.06,5.676c.621-.023,1.3-.084,2.073-.188V-3747.7h4.973l.78-5.05h-5.754v-2.76a5.664,5.664,0,0,1,.588-2.766,2.235,2.235,0,0,1,2.06-1.193h3.153v-4.407l-.031,0a26.85,26.85,0,0,0-3.909-.234c-4.867,0-7.335,2.693-7.335,8v3.361h-4.754v5.05h4.754v13.883a19.24,19.24,0,0,0,2.779.237Z" transform="translate(-147.5 3772)" fill="#fff"/></g></svg>