<svg xmlns="http://www.w3.org/2000/svg" xmlns:xlink="http://www.w3.org/1999/xlink" width="38.424" height="38.424" viewBox="0 0 38.424 38.424"><defs><clipPath id="a"><rect width="38.424" height="38.424"/></clipPath></defs><rect width="38.424" height="38.424" fill="none"/><g clip-path="url(#a)"><path d="M102.567-3733.575h-.007a8.549,8.549,0,0,1-8.537-8.527L94-3763.436a8.545,8.545,0,0,1,8.526-8.543l21.336-.02h.009a8.546,8.546,0,0,1,8.534,8.526l.021,21.335a8.474,8.474,0,0,1-2.5,6.031,8.472,8.472,0,0,1-6.025,2.512Zm4.249-33.081a7.475,7.475,0,0,0-7.467,7.467v12.8a7.476,7.476,0,0,0,7.467,7.468h12.8a7.476,7.476,0,0,0,7.467-7.468v-12.8a7.475,7.475,0,0,0-7.467-7.467Zm12.8,25.6h-12.8a5.34,5.34,0,0,1-5.333-5.334v-12.8a5.339,5.339,0,0,1,5.333-5.333h12.8a5.339,5.339,0,0,1,5.333,5.333v12.8A5.34,5.34,0,0,1,119.617-3741.053Zm-6.4-19.2a7.476,7.476,0,0,0-7.467,7.467,7.475,7.475,0,0,0,7.467,7.467,7.476,7.476,0,0,0,7.468-7.467A7.476,7.476,0,0,0,113.215-3760.255Zm8-2.134a1.6,1.6,0,0,0-1.6,1.6,1.6,1.6,0,0,0,1.6,1.6,1.6,1.6,0,0,0,1.6-1.6A1.6,1.6,0,0,0,121.216-3762.388Zm-8,14.934a5.339,5.339,0,0,1-5.333-5.333,5.339,5.339,0,0,1,5.333-5.333,5.34,5.34,0,0,1,5.334,5.333A5.34,5.34,0,0,1,113.215-3747.454Z" transform="translate(-94.003 3772)" fill="#fff"/></g></svg>