<?xml version="1.0" encoding="UTF-8" standalone="no"?><!DOCTYPE svg PUBLIC "-//W3C//DTD SVG 1.1//EN" "http://www.w3.org/Graphics/SVG/1.1/DTD/svg11.dtd"><svg width="100%" height="100%" viewBox="0 0 5315 5315" version="1.1" xmlns="http://www.w3.org/2000/svg" xmlns:xlink="http://www.w3.org/1999/xlink" xml:space="preserve" xmlns:serif="http://www.serif.com/" style="fill-rule:evenodd;clip-rule:evenodd;stroke-linejoin:round;stroke-miterlimit:2;"><rect id="instagram-logo" x="0" y="0" width="5314.96" height="5314.96" style="fill:none;"/><clipPath id="_clip1"><rect x="0" y="0" width="5314.96" height="5314.96"/></clipPath><g clip-path="url(#_clip1)"><path d="M4135.66,5312.16l-2951.2,2.804c-649.264,0.59 -1180.92,-530.035 -1181.66,-1179.3l-2.804,-2951.2c-0.59,-649.264 530.036,-1180.92 1179.3,-1181.66l2951.2,-2.804c649.263,-0.59 1180.92,530.036 1181.66,1179.3l2.804,2951.2c0.738,649.411 -530.035,1181.07 -1179.3,1181.66Z" style="fill:#fff;fill-rule:nonzero;"/><path d="M4135.66,5312.16l-2951.2,2.804c-649.264,0.59 -1180.92,-530.035 -1181.66,-1179.3l-2.804,-2951.2c-0.59,-649.264 530.036,-1180.92 1179.3,-1181.66l2951.2,-2.804c649.263,-0.59 1180.92,530.036 1181.66,1179.3l2.804,2951.2c0.738,649.411 -530.035,1181.07 -1179.3,1181.66Z" style="fill:#fff;fill-rule:nonzero;"/><path d="M2657.55,3690.47c-569.434,0 -1032.92,-463.338 -1032.92,-1032.92c-0,-569.581 463.485,-1032.92 1032.92,-1032.92c569.434,-0 1032.92,463.338 1032.92,1032.92c0,569.581 -463.485,1032.92 -1032.92,1032.92Zm-0,-1770.72c-406.823,-0 -737.799,330.976 -737.799,737.799c-0,406.823 330.976,737.799 737.799,737.799c406.823,0 737.799,-330.976 737.799,-737.799c0,-406.823 -330.976,-737.799 -737.799,-737.799Z" style="fill:#3e34cd;fill-rule:nonzero;"/><circle cx="3764.25" cy="1550.86" r="221.34" style="fill:#3e34cd;"/><path d="M3542.91,4575.83l-1770.72,0c-569.434,0 -1032.92,-463.338 -1032.92,-1032.92l0,-1770.72c0,-569.581 463.486,-1032.92 1032.92,-1032.92l1770.72,0c569.434,0 1032.92,463.339 1032.92,1032.92l0,1770.72c0,569.581 -463.485,1032.92 -1032.92,1032.92Zm-1770.72,-3541.44c-406.823,0 -737.8,330.977 -737.8,737.8l0,1770.72c0,406.823 330.977,737.8 737.8,737.8l1770.72,-0c406.823,-0 737.8,-330.977 737.8,-737.8l-0,-1770.72c-0,-406.823 -330.977,-737.8 -737.8,-737.8l-1770.72,0Z" style="fill:#3e34cd;fill-rule:nonzero;"/></g></svg>