<svg xmlns="http://www.w3.org/2000/svg" xmlns:xlink="http://www.w3.org/1999/xlink" width="38.424" height="38.424" viewBox="0 0 38.424 38.424"><defs><clipPath id="a"><rect width="38.424" height="38.424"/></clipPath></defs><g transform="translate(0)"><rect width="38.424" height="38.424" fill="none"/><g transform="translate(0)" clip-path="url(#a)"><g clip-path="url(#a)"><path d="M38.42,465.34a15.986,15.986,0,0,1-4.533,1.24,7.875,7.875,0,0,0,3.47-4.331,15.827,15.827,0,0,1-5.009,1.9,7.862,7.862,0,0,0-13.425,7.13,22.466,22.466,0,0,1-16.248-8.169,7.717,7.717,0,0,0-1.067,3.934,7.8,7.8,0,0,0,3.506,6.506,8.026,8.026,0,0,1-3.574-.975v.092a7.837,7.837,0,0,0,6.321,7.664,7.841,7.841,0,0,1-2.072.281,8.375,8.375,0,0,1-1.486-.144,7.9,7.9,0,0,0,7.362,5.428,15.929,15.929,0,0,1-9.791,3.345A15.594,15.594,0,0,1,0,489.124a22.529,22.529,0,0,0,12.086,3.506c14.5,0,22.43-11.906,22.43-22.235,0-.338-.011-.676-.027-1.009a15.51,15.51,0,0,0,3.935-4.047" transform="translate(0.005 -458.342)" fill="#fff"/></g></g></g></svg>