<?xml version="1.0" encoding="UTF-8" standalone="no"?><!DOCTYPE svg PUBLIC "-//W3C//DTD SVG 1.1//EN" "http://www.w3.org/Graphics/SVG/1.1/DTD/svg11.dtd"><svg width="100%" height="100%" viewBox="0 0 5315 5315" version="1.1" xmlns="http://www.w3.org/2000/svg" xmlns:xlink="http://www.w3.org/1999/xlink" xml:space="preserve" xmlns:serif="http://www.serif.com/" style="fill-rule:evenodd;clip-rule:evenodd;stroke-linejoin:round;stroke-miterlimit:2;"><rect id="twitter-logo" x="0" y="0" width="5314.96" height="5314.96" style="fill:none;"/><clipPath id="_clip1"><rect x="0" y="0" width="5314.96" height="5314.96"/></clipPath><g clip-path="url(#_clip1)"><clipPath id="_clip2"><rect id="icons8-twitter.svg" x="-0" y="0" width="5314.96" height="5314.96"/></clipPath><g clip-path="url(#_clip2)"><path d="M5314.96,967.888c-195.309,86.509 -405.38,144.23 -626.966,171.541c225.277,-133.749 398.589,-347.068 479.931,-599.064c-210.81,123.562 -444.353,214.352 -692.807,262.183c-198.408,-210.367 -481.407,-340.868 -794.963,-340.868c-602.312,0 -1090.51,483.917 -1090.51,1080.62c0,84.442 9.891,166.669 28.492,246.534c-906.125,-45.468 -1709.8,-476.239 -2247.45,-1129.92c-94.481,159.731 -147.626,346.772 -147.626,544.148c0,375.116 192.061,705.354 484.95,899.925c-178.775,-5.463 -347.068,-55.212 -494.398,-134.93l0,12.696c0,524.218 376.002,960.746 874.386,1060.1c-91.085,24.949 -187.337,38.826 -286.541,38.826c-70.418,-0 -139.063,-7.972 -205.495,-19.93c138.768,428.41 541.343,741.523 1018.32,750.824c-373.197,289.346 -843.237,462.658 -1354.32,462.658c-88.28,-0 -174.64,-5.019 -259.968,-15.353c482.883,305.732 1056.26,484.95 1671.71,484.95c2005.49,-0 3102.64,-1646.91 3102.64,-3075.63c0,-46.797 -1.476,-93.447 -3.691,-139.506c214.057,-151.169 398.589,-341.901 544.296,-559.796" style="fill:#fff;fill-rule:nonzero;"/></g></g></svg>